<svg width="15" height="14" viewBox="0 0 15 14" fill="none" xmlns="http://www.w3.org/2000/svg">
<g clip-path="url(#clip0_1545_8341)">
<path d="M9.01996 3.5V2.5C9.01996 2.23478 8.9146 1.98043 8.72707 1.79289C8.53953 1.60536 8.28517 1.5 8.01996 1.5H7.01996" stroke="#FFFFFF" stroke-linecap="round" stroke-linejoin="round"/>
<path d="M4.51996 10.5H2.01996C1.75474 10.5 1.50039 10.3946 1.31285 10.2071C1.12532 10.0196 1.01996 9.76522 1.01996 9.5V2.5C1.01996 2.23478 1.12532 1.98043 1.31285 1.79289C1.50039 1.60536 1.75474 1.5 2.01996 1.5H3.01996" stroke="#FFFFFF" stroke-linecap="round" stroke-linejoin="round"/>
<path d="M13.02 5.5H8.01996C7.46767 5.5 7.01996 5.94772 7.01996 6.5V12.5C7.01996 13.0523 7.46767 13.5 8.01996 13.5H13.02C13.5722 13.5 14.02 13.0523 14.02 12.5V6.5C14.02 5.94772 13.5722 5.5 13.02 5.5Z" stroke="#FFFFFF" stroke-linecap="round" stroke-linejoin="round"/>
<path d="M7.26996 0.5H2.76996L3.17996 2.12C3.20494 2.22843 3.26607 2.32513 3.35331 2.39419C3.44055 2.46325 3.54869 2.50057 3.65996 2.5H6.37996C6.49122 2.50057 6.59937 2.46325 6.68661 2.39419C6.77385 2.32513 6.83498 2.22843 6.85996 2.12L7.26996 0.5Z" stroke="#FFFFFF" stroke-linecap="round" stroke-linejoin="round"/>
<path d="M9.01996 8.5H12.02" stroke="#FFFFFF" stroke-linecap="round" stroke-linejoin="round"/>
<path d="M9.01996 10.5H12.02" stroke="#FFFFFF" stroke-linecap="round" stroke-linejoin="round"/>
</g>
<defs>
<clipPath id="clip0_1545_8341">
<rect width="14" height="14" fill="white" transform="translate(0.519958)"/>
</clipPath>
</defs>
</svg>
