<svg width="24" height="16" viewBox="0 0 20 16" fill="none" xmlns="http://www.w3.org/2000/svg">
<g id="Group 13">
<path id="Vector" d="M18.125 1.75C18.2908 1.75 18.4497 1.81585 18.5669 1.93306C18.6842 2.05027 18.75 2.20924 18.75 2.375V13.625C18.75 13.7908 18.6842 13.9497 18.5669 14.0669C18.4497 14.1842 18.2908 14.25 18.125 14.25H1.875C1.70924 14.25 1.55027 14.1842 1.43306 14.0669C1.31585 13.9497 1.25 13.7908 1.25 13.625V2.375C1.25 2.20924 1.31585 2.05027 1.43306 1.93306C1.55027 1.81585 1.70924 1.75 1.875 1.75H18.125ZM1.875 0.5C1.37772 0.5 0.900805 0.697544 0.549175 1.04917C0.197544 1.40081 0 1.87772 0 2.375L0 13.625C0 14.1223 0.197544 14.5992 0.549175 14.9508C0.900805 15.3025 1.37772 15.5 1.875 15.5H18.125C18.6223 15.5 19.0992 15.3025 19.4508 14.9508C19.8025 14.5992 20 14.1223 20 13.625V2.375C20 1.87772 19.8025 1.40081 19.4508 1.04917C19.0992 0.697544 18.6223 0.5 18.125 0.5H1.875Z" fill="black"/>
<path id="Vector_2" d="M8.75006 4.8749C8.75006 4.70914 8.81591 4.55016 8.93312 4.43295C9.05033 4.31574 9.2093 4.2499 9.37506 4.2499H15.6251C15.7908 4.2499 15.9498 4.31574 16.067 4.43295C16.1842 4.55016 16.2501 4.70914 16.2501 4.8749C16.2501 5.04066 16.1842 5.19963 16.067 5.31684C15.9498 5.43405 15.7908 5.4999 15.6251 5.4999H9.37506C9.2093 5.4999 9.05033 5.43405 8.93312 5.31684C8.81591 5.19963 8.75006 5.04066 8.75006 4.8749ZM6.88006 3.8074C6.93826 3.86545 6.98444 3.93442 7.01595 4.01035C7.04746 4.08629 7.06367 4.16769 7.06367 4.2499C7.06367 4.33211 7.04746 4.41351 7.01595 4.48944C6.98444 4.56537 6.93826 4.63434 6.88006 4.6924L5.00506 6.5674C4.947 6.6256 4.87803 6.67178 4.8021 6.70329C4.72617 6.7348 4.64477 6.75101 4.56256 6.75101C4.48035 6.75101 4.39895 6.7348 4.32302 6.70329C4.24708 6.67178 4.17811 6.6256 4.12006 6.5674L3.49506 5.9424C3.43695 5.88429 3.39085 5.8153 3.3594 5.73938C3.32795 5.66345 3.31177 5.58208 3.31177 5.4999C3.31177 5.33393 3.3777 5.17475 3.49506 5.0574C3.61242 4.94004 3.77159 4.87411 3.93756 4.87411C4.10353 4.87411 4.2627 4.94004 4.38006 5.0574L4.56256 5.24115L5.99506 3.8074C6.05311 3.74919 6.12208 3.70301 6.19802 3.67151C6.27395 3.64 6.35535 3.62378 6.43756 3.62378C6.51977 3.62378 6.60117 3.64 6.6771 3.67151C6.75303 3.70301 6.822 3.74919 6.88006 3.8074ZM8.75006 9.8749C8.75006 9.70914 8.81591 9.55016 8.93312 9.43295C9.05033 9.31574 9.2093 9.2499 9.37506 9.2499H15.6251C15.7908 9.2499 15.9498 9.31574 16.067 9.43295C16.1842 9.55016 16.2501 9.70914 16.2501 9.8749C16.2501 10.0407 16.1842 10.1996 16.067 10.3168C15.9498 10.434 15.7908 10.4999 15.6251 10.4999H9.37506C9.2093 10.4999 9.05033 10.434 8.93312 10.3168C8.81591 10.1996 8.75006 10.0407 8.75006 9.8749ZM6.88006 8.8074C6.93826 8.86545 6.98444 8.93442 7.01595 9.01035C7.04746 9.08629 7.06367 9.16769 7.06367 9.2499C7.06367 9.3321 7.04746 9.41351 7.01595 9.48944C6.98444 9.56537 6.93826 9.63434 6.88006 9.6924L5.00506 11.5674C4.947 11.6256 4.87803 11.6718 4.8021 11.7033C4.72617 11.7348 4.64477 11.751 4.56256 11.751C4.48035 11.751 4.39895 11.7348 4.32302 11.7033C4.24708 11.6718 4.17811 11.6256 4.12006 11.5674L3.49506 10.9424C3.43695 10.8843 3.39085 10.8153 3.3594 10.7394C3.32795 10.6635 3.31177 10.5821 3.31177 10.4999C3.31177 10.4177 3.32795 10.3363 3.3594 10.2604C3.39085 10.1845 3.43695 10.1155 3.49506 10.0574C3.55317 9.99929 3.62215 9.95319 3.69808 9.92174C3.774 9.89029 3.85538 9.87411 3.93756 9.87411C4.01974 9.87411 4.10111 9.89029 4.17704 9.92174C4.25296 9.95319 4.32195 9.99929 4.38006 10.0574L4.56256 10.2411L5.99506 8.8074C6.05311 8.74919 6.12208 8.70301 6.19802 8.67151C6.27395 8.64 6.35535 8.62378 6.43756 8.62378C6.51977 8.62378 6.60117 8.64 6.6771 8.67151C6.75303 8.70301 6.822 8.74919 6.88006 8.8074Z" fill="black"/>
</g>
</svg>
