<svg width="20" height="20" viewBox="0 0 20 20" fill="none" xmlns="http://www.w3.org/2000/svg">
<g id="Icon / Log-out">
<g id="Union">
<path d="M5.83325 1.66663C5.17021 1.66663 4.53433 1.93002 4.06548 2.39886C3.59664 2.8677 3.33325 3.50358 3.33325 4.16663V15.8333C3.33325 16.4963 3.59664 17.1322 4.06548 17.6011C4.53433 18.0699 5.17021 18.3333 5.83325 18.3333H14.1666C14.8296 18.3333 15.4655 18.0699 15.9344 17.6011C16.4032 17.1322 16.6666 16.4963 16.6666 15.8333V15C16.6666 14.5397 16.2935 14.1666 15.8333 14.1666C15.373 14.1666 14.9999 14.5397 14.9999 15V15.8333C14.9999 16.0543 14.9121 16.2663 14.7558 16.4225C14.5996 16.5788 14.3876 16.6666 14.1666 16.6666H5.83325C5.61224 16.6666 5.40028 16.5788 5.244 16.4225C5.08772 16.2663 4.99992 16.0543 4.99992 15.8333V4.16663C4.99992 3.94561 5.08772 3.73365 5.244 3.57737C5.40028 3.42109 5.61224 3.33329 5.83325 3.33329H14.1666C14.3876 3.33329 14.5996 3.42109 14.7558 3.57737C14.9121 3.73365 14.9999 3.94561 14.9999 4.16663V4.99996C14.9999 5.4602 15.373 5.83329 15.8333 5.83329C16.2935 5.83329 16.6666 5.4602 16.6666 4.99996V4.16663C16.6666 3.50358 16.4032 2.8677 15.9344 2.39886C15.4655 1.93002 14.8296 1.66663 14.1666 1.66663H5.83325Z" fill="#D55F5A"/>
<path d="M13.9225 6.9107C13.5971 6.58527 13.0694 6.58527 12.744 6.9107C12.4186 7.23614 12.4186 7.76378 12.744 8.08921L13.8214 9.16663H9.99992C9.53968 9.16663 9.16658 9.53972 9.16658 9.99996C9.16658 10.4602 9.53968 10.8333 9.99992 10.8333H13.8214L12.744 11.9107C12.4186 12.2361 12.4186 12.7638 12.744 13.0892C13.0694 13.4147 13.5971 13.4147 13.9225 13.0892L16.4225 10.5892C16.7479 10.2638 16.7479 9.73614 16.4225 9.4107L13.9225 6.9107Z" fill="#D55F5A"/>
</g>
</g>
</svg>
